<svg xmlns="http://www.w3.org/2000/svg" width="1600" height="900" viewBox="0 0 1600 900">
  <defs>
    <linearGradient id="e" x1="0" y1="0" x2="1" y2="1"><stop offset="0" stop-color="#E87A6A"/><stop offset="1" stop-color="#D9594A"/></linearGradient>
    <radialGradient id="bg" cx="0.2" cy="0.18" r="0.7"><stop offset="0" stop-color="#D9594A" stop-opacity="0.14"/><stop offset="1" stop-color="#D9594A" stop-opacity="0"/></radialGradient>
  </defs>
  <rect width="1600" height="900" fill="#08080A"/>
  <rect width="1600" height="900" fill="url(#bg)"/>

  <!-- logo + tag -->
  <g transform="translate(90 70)">
    <g transform="translate(20 20) rotate(45)">
      <rect x="-18" y="-18" width="36" height="36" rx="6" fill="none" stroke="#4A4844" stroke-width="2.5"/>
      <rect x="-10" y="-10" width="20" height="20" rx="5" fill="url(#e)"/>
    </g>
    <text x="54" y="29" font-family="'Clash Display','Segoe UI',Arial,sans-serif" font-weight="700" font-size="29" fill="#ECE9E2">BundleScan</text>
  </g>
  <text x="1510" y="98" text-anchor="end" font-family="'Geist Mono',ui-monospace,monospace" font-size="20" letter-spacing="6" fill="#D9594A">LAUNCH X-RAY</text>

  <!-- score block -->
  <text x="86" y="470" font-family="'Clash Display','Segoe UI',Arial,sans-serif" font-weight="700" font-size="300" letter-spacing="-10" fill="#D9594A">24</text>
  <text x="430" y="470" font-family="'Clash Display','Segoe UI',Arial,sans-serif" font-weight="600" font-size="70" fill="#4A4844">/100</text>
  <text x="96" y="556" font-family="'Geist Mono',ui-monospace,monospace" font-size="40" letter-spacing="14" fill="#D9594A">RIGGED</text>

  <!-- divider -->
  <line x1="640" y1="250" x2="640" y2="556" stroke="#222227" stroke-width="2"/>

  <!-- token + strip -->
  <text x="700" y="318" font-family="'Clash Display','Segoe UI',Arial,sans-serif" font-weight="700" font-size="78" letter-spacing="-2" fill="#ECE9E2">$WAGMI</text>
  <text x="704" y="368" font-family="'Geist Mono',ui-monospace,monospace" font-size="26" fill="#4A4844">7xKpVeR4nQ2mL8sD…9fQa</text>
  <text x="704" y="440" font-family="'Geist Mono',ui-monospace,monospace" font-size="24" letter-spacing="3" fill="#84817C">61% INSIDER CAPTURED · 71% STILL HELD</text>
  <rect x="704" y="466" width="772" height="22" rx="11" fill="#22222A"/>
  <rect x="704" y="466" width="471" height="22" rx="11" fill="url(#e)"/>

  <!-- suspect wallets -->
  <g font-family="'Geist Mono',ui-monospace,monospace">
    <line x1="90" y1="632" x2="1510" y2="632" stroke="#19191D" stroke-width="2"/>
    <text x="90" y="688" font-size="30" fill="#ECE9E2">Hq8f…2nLp</text>
    <text x="470" y="688" font-size="22" letter-spacing="2" fill="#4A4844">BUNDLE</text>
    <text x="1180" y="688" text-anchor="end" font-size="30" fill="#ECE9E2">11.2%</text>
    <circle cx="1300" cy="679" r="5" fill="#D9594A"/>
    <text x="1320" y="688" font-size="22" letter-spacing="2" fill="#D9594A">HOLDING</text>

    <line x1="90" y1="712" x2="1510" y2="712" stroke="#19191D" stroke-width="2"/>
    <text x="90" y="768" font-size="30" fill="#ECE9E2">3kRm…9wXc</text>
    <text x="470" y="768" font-size="22" letter-spacing="2" fill="#4A4844">DEV-LINK</text>
    <text x="1180" y="768" text-anchor="end" font-size="30" fill="#ECE9E2">9.0%</text>
    <circle cx="1300" cy="759" r="5" fill="#D9594A"/>
    <text x="1320" y="768" font-size="22" letter-spacing="2" fill="#D9594A">HOLDING</text>

    <line x1="90" y1="792" x2="1510" y2="792" stroke="#19191D" stroke-width="2"/>
    <text x="90" y="848" font-size="30" fill="#ECE9E2">9xNt…4mKe</text>
    <text x="470" y="848" font-size="22" letter-spacing="2" fill="#4A4844">SNIPER</text>
    <text x="1180" y="848" text-anchor="end" font-size="30" fill="#ECE9E2">6.4%</text>
    <circle cx="1300" cy="839" r="5" fill="#4A4844"/>
    <text x="1320" y="848" font-size="22" letter-spacing="2" fill="#4A4844">DUMPED</text>
  </g>
</svg>
